<svg width="18" height="19" viewBox="0 0 18 19" fill="none" xmlns="http://www.w3.org/2000/svg">
<g clip-path="url(#clip0_3_142)">
<path d="M6.02056 14.7473C6.02056 14.8215 5.9371 14.8809 5.83185 14.8809C5.7121 14.892 5.62863 14.8326 5.62863 14.7473C5.62863 14.673 5.7121 14.6137 5.81734 14.6137C5.92621 14.6025 6.02056 14.6619 6.02056 14.7473ZM4.89194 14.5803C4.86653 14.6545 4.93911 14.7398 5.04798 14.7621C5.14234 14.7992 5.25121 14.7621 5.27298 14.6879C5.29476 14.6137 5.22581 14.5283 5.11694 14.4949C5.02258 14.4689 4.91734 14.5061 4.89194 14.5803ZM6.49597 14.5172C6.39073 14.5432 6.31814 14.6137 6.32903 14.699C6.33992 14.7732 6.43427 14.8215 6.54315 14.7955C6.64839 14.7695 6.72097 14.699 6.71008 14.6248C6.69919 14.5543 6.60121 14.5061 6.49597 14.5172ZM8.88387 0.296875C3.8504 0.296875 0 4.20449 0 9.35156C0 13.467 2.53306 16.9887 6.15121 18.2281C6.61573 18.3135 6.77903 18.0203 6.77903 17.7791C6.77903 17.549 6.76815 16.2799 6.76815 15.5006C6.76815 15.5006 4.22782 16.0572 3.69435 14.3947C3.69435 14.3947 3.28065 13.3148 2.68548 13.0365C2.68548 13.0365 1.85444 12.4539 2.74355 12.465C2.74355 12.465 3.64718 12.5393 4.14435 13.4225C4.93911 14.8549 6.27097 14.443 6.78992 14.198C6.87339 13.6043 7.10927 13.1924 7.37056 12.9475C5.34194 12.7174 3.29516 12.4168 3.29516 8.84688C3.29516 7.82637 3.57097 7.31426 4.15161 6.66113C4.05726 6.41992 3.74879 5.42539 4.24597 4.14141C5.00444 3.9002 6.75 5.14336 6.75 5.14336C7.47581 4.93555 8.25605 4.82793 9.02903 4.82793C9.80202 4.82793 10.5823 4.93555 11.3081 5.14336C11.3081 5.14336 13.0536 3.89648 13.8121 4.14141C14.3093 5.4291 14.0008 6.41992 13.9065 6.66113C14.4871 7.31797 14.8427 7.83008 14.8427 8.84688C14.8427 12.4279 12.7052 12.7137 10.6766 12.9475C11.0105 13.2406 11.2935 13.7973 11.2935 14.6693C11.2935 15.9199 11.2827 17.4674 11.2827 17.7717C11.2827 18.0129 11.4496 18.3061 11.9105 18.2207C15.5395 16.9887 18 13.467 18 9.35156C18 4.20449 13.9173 0.296875 8.88387 0.296875ZM3.52742 13.0959C3.48024 13.133 3.49113 13.2184 3.55282 13.2889C3.61089 13.3482 3.69435 13.3742 3.74153 13.326C3.78871 13.2889 3.77782 13.2035 3.71613 13.133C3.65806 13.0736 3.5746 13.0477 3.52742 13.0959ZM3.13548 12.7953C3.11008 12.8436 3.14637 12.9029 3.21895 12.94C3.27702 12.9771 3.3496 12.966 3.375 12.9141C3.4004 12.8658 3.36411 12.8064 3.29153 12.7693C3.21895 12.7471 3.16089 12.7582 3.13548 12.7953ZM4.31129 14.1164C4.25323 14.1646 4.275 14.276 4.35847 14.3465C4.44194 14.4318 4.54718 14.443 4.59435 14.3836C4.64153 14.3354 4.61976 14.224 4.54718 14.1535C4.46734 14.0682 4.35847 14.057 4.31129 14.1164ZM3.89758 13.5709C3.83952 13.608 3.83952 13.7045 3.89758 13.7898C3.95565 13.8752 4.05363 13.9123 4.10081 13.8752C4.15887 13.827 4.15887 13.7305 4.10081 13.6451C4.05 13.5598 3.95565 13.5227 3.89758 13.5709Z" fill="white"/>
</g>
<defs>
<clipPath id="clip0_3_142">
<rect width="18" height="19" fill="white"/>
</clipPath>
</defs>
</svg>
