<svg width="21" height="22" viewBox="0 0 21 22" fill="none" xmlns="http://www.w3.org/2000/svg">
<path d="M19.5 1.375H1.49531C0.670312 1.375 0 1.99805 0 2.76289V19.2371C0 20.002 0.670312 20.625 1.49531 20.625H19.5C20.325 20.625 21 20.002 21 19.2371V2.76289C21 1.99805 20.325 1.375 19.5 1.375ZM6.34687 17.875H3.23438V8.68828H6.35156V17.875H6.34687ZM4.79062 7.43359C3.79219 7.43359 2.98594 6.69023 2.98594 5.7793C2.98594 4.86836 3.79219 4.125 4.79062 4.125C5.78437 4.125 6.59531 4.86836 6.59531 5.7793C6.59531 6.69453 5.78906 7.43359 4.79062 7.43359ZM18.0141 17.875H14.9016V13.4062C14.9016 12.3406 14.8781 10.9699 13.2844 10.9699C11.6625 10.9699 11.4141 12.1301 11.4141 13.3289V17.875H8.30156V8.68828H11.2875V9.94297H11.3297C11.7469 9.22109 12.7641 8.46055 14.2781 8.46055C17.4281 8.46055 18.0141 10.3641 18.0141 12.8391V17.875Z" fill="white"/>
</svg>
